<?xml version="1.0" encoding="utf-8"?>
<!-- Generator: Adobe Illustrator 16.0.0, SVG Export Plug-In . SVG Version: 6.00 Build 0)  -->
<!DOCTYPE svg PUBLIC "-//W3C//DTD SVG 1.1//EN" "http://www.w3.org/Graphics/SVG/1.1/DTD/svg11.dtd">
<svg version="1.1" id="Capa_1" xmlns="http://www.w3.org/2000/svg" xmlns:xlink="http://www.w3.org/1999/xlink" x="0px" y="0px"
	 width="357.805px" height="111px" viewBox="0 0 357.805 111" style="enable-background:new 0 0 357.805 111;" xml:space="preserve"
	>
<style type="text/css">
<![CDATA[
	.st0{fill:#676362;}
	.st1{fill:#D13516;}
	.st2{fill:#3B64A1;}
]]>
</style>
<g>
	<g>
		<path class="st1" d="M25.205,32.403v24.733h-4.876l-0.754-3.156c-2.842,2.104-5.857,3.156-9.045,3.156
			c-5.057,0-7.585-2.992-7.585-8.975V32.403h6.242v15.594c0,2.732,1.193,4.099,3.581,4.099c2.026,0,4.091-0.809,6.195-2.426V32.403
			H25.205z"/>
		<path class="st1" d="M29.887,55.958v-5.182c2.748,1.099,5.92,1.649,9.517,1.649c2.686,0,4.028-0.864,4.028-2.591
			c0-1.649-0.903-2.473-2.708-2.473h-4.476c-5.026,0-7.538-2.474-7.538-7.42c0-5.182,3.667-7.773,11-7.773
			c3.109,0,6.038,0.471,8.786,1.414v5.182c-2.748-1.099-5.732-1.649-8.951-1.649c-3.376,0-5.064,0.864-5.064,2.591
			c0,1.649,0.981,2.473,2.945,2.473h4.004c5.496,0,8.245,2.474,8.245,7.42c0,5.182-3.502,7.773-10.506,7.773
			C35.729,57.372,32.635,56.901,29.887,55.958z"/>
		<path class="st1" d="M51.648,49.434c0-4.915,3.581-7.373,10.742-7.373c1.68,0,3.36,0.157,5.041,0.471v-1.861
			c0-2.214-1.594-3.321-4.782-3.321c-2.701,0-5.7,0.393-8.998,1.178v-4.947c3.298-0.785,6.297-1.178,8.998-1.178
			c7.35,0,11.024,2.717,11.024,8.15v16.583h-3.627l-2.214-2.214c-2.151,1.477-4.522,2.214-7.114,2.214
			C54.671,57.136,51.648,54.569,51.648,49.434z M62.39,46.301c-3,0-4.5,1.021-4.5,3.062c0,2.199,1.256,3.298,3.769,3.298
			c2.073,0,3.997-0.644,5.771-1.932v-3.957C65.86,46.458,64.18,46.301,62.39,46.301z"/>
		<path class="st1" d="M78.355,23.452h6.242v10.835c1.869-1.256,3.949-1.884,6.243-1.884c7.035,0,10.553,3.958,10.553,11.872
			c0,8.574-4.028,12.861-12.084,12.861c-3.392,0-7.043-0.337-10.954-1.013V23.452z M84.598,51.412
			c1.429,0.456,3.086,0.683,4.97,0.683c3.769,0,5.654-2.662,5.654-7.985c0-4.35-1.625-6.525-4.876-6.525
			c-2.104,0-4.02,0.424-5.748,1.272V51.412z"/>
		<path class="st1" d="M111.14,23.452v33.685h-6.242V23.452H111.14z"/>
		<path class="st1" d="M126.258,32.403c7.506,0,11.26,3.832,11.26,11.495c0,1.021-0.071,2.042-0.213,3.062h-16.418
			c0,3.486,2.56,5.229,7.68,5.229c2.496,0,4.993-0.235,7.49-0.707v4.947c-2.183,0.471-4.837,0.707-7.962,0.707
			c-8.967,0-13.45-4.216-13.45-12.649C114.645,36.431,118.516,32.403,126.258,32.403z M120.887,42.626h10.553v-0.188
			c0-3.423-1.728-5.135-5.182-5.135C122.96,37.302,121.17,39.077,120.887,42.626z"/>
		<path class="st0" d="M140.411,50.14c0-4.915,3.267-7.373,9.799-7.373c2.309,0,4.774,0.157,7.396,0.471V40.2
			c0-3.784-2.379-5.677-7.137-5.677c-2.701,0-5.387,0.393-8.057,1.178v-2.12c2.67-0.785,5.355-1.178,8.057-1.178
			c6.407,0,9.61,2.56,9.61,7.679v17.054h-1.508l-0.565-2.45c-3.094,1.633-6.093,2.45-8.998,2.45
			C143.277,57.136,140.411,54.804,140.411,50.14z M150.209,44.887c-4.884,0-7.325,1.728-7.325,5.182
			c0,3.298,2.041,4.947,6.124,4.947c3.016,0,5.881-0.801,8.598-2.402v-7.255C154.984,45.044,152.518,44.887,150.209,44.887z"/>
		<path class="st0" d="M184.313,56.43c-2.041,0.471-4.239,0.707-6.596,0.707c-8.323,0-12.484-4.279-12.484-12.838
			c0-7.93,4.161-11.896,12.484-11.896c2.356,0,4.555,0.235,6.596,0.707v2.12c-2.198-0.471-4.318-0.707-6.359-0.707
			c-6.675,0-10.012,3.259-10.012,9.775c0,7.146,3.337,10.718,10.012,10.718c2.041,0,4.161-0.235,6.359-0.707V56.43z"/>
		<path class="st0" d="M206.781,56.43c-2.041,0.471-4.239,0.707-6.596,0.707c-8.323,0-12.484-4.279-12.484-12.838
			c0-7.93,4.161-11.896,12.484-11.896c2.356,0,4.555,0.235,6.596,0.707v2.12c-2.198-0.471-4.318-0.707-6.359-0.707
			c-6.675,0-10.012,3.259-10.012,9.775c0,7.146,3.337,10.718,10.012,10.718c2.041,0,4.161-0.235,6.359-0.707V56.43z"/>
		<path class="st0" d="M221.311,32.403c6.768,0,10.152,3.745,10.152,11.236c0,0.534-0.017,1.092-0.048,1.673h-18.773
			c0,6.47,3.423,9.705,10.271,9.705c2.811,0,5.308-0.392,7.49-1.178v2.12c-2.183,0.785-4.68,1.178-7.49,1.178
			c-8.496,0-12.744-4.216-12.744-12.649C210.168,36.431,213.882,32.403,221.311,32.403z M212.642,43.097h16.441
			c-0.094-5.748-2.685-8.622-7.772-8.622C215.814,34.476,212.924,37.35,212.642,43.097z"/>
		<path class="st0" d="M236.146,55.958v-2.355c2.748,0.942,5.449,1.413,8.104,1.413c5.197,0,7.797-1.649,7.797-4.947
			c0-2.669-1.924-4.004-5.771-4.004h-3.156c-5.183,0-7.773-2.198-7.773-6.596c0-4.711,3.431-7.066,10.294-7.066
			c2.638,0,5.331,0.393,8.079,1.178v2.355c-2.748-0.942-5.441-1.413-8.079-1.413c-5.214,0-7.82,1.649-7.82,4.946
			c0,2.827,1.767,4.24,5.3,4.24h3.156c5.496,0,8.244,2.12,8.244,6.36c0,4.711-3.424,7.067-10.27,7.067
			C241.595,57.136,238.894,56.744,236.146,55.958z"/>
		<path class="st0" d="M262.853,23.452v2.827h-2.944v-2.827H262.853z M262.617,32.403v24.733h-2.473V32.403H262.617z"/>
		<path class="st0" d="M269.42,23.452h2.474v10.129c2.968-0.785,5.52-1.178,7.655-1.178c7.507,0,11.26,3.958,11.26,11.872
			c0,8.574-3.949,12.861-11.849,12.861c-3.549,0-6.729-0.337-9.54-1.013V23.452z M271.894,54.239
			c2.528,0.456,4.813,0.683,6.854,0.683c6.438,0,9.658-3.604,9.658-10.812c0-6.234-2.96-9.352-8.881-9.352
			c-2.261,0-4.805,0.424-7.632,1.272V54.239z"/>
		<path class="st0" d="M298.907,23.452v33.685h-2.473V23.452H298.907z"/>
		<path class="st0" d="M315.674,32.403c6.768,0,10.152,3.745,10.152,11.236c0,0.534-0.017,1.092-0.048,1.673h-18.773
			c0,6.47,3.423,9.705,10.271,9.705c2.811,0,5.308-0.392,7.49-1.178v2.12c-2.183,0.785-4.68,1.178-7.49,1.178
			c-8.496,0-12.744-4.216-12.744-12.649C304.532,36.431,308.246,32.403,315.674,32.403z M307.005,43.097h16.441
			c-0.094-5.748-2.685-8.622-7.772-8.622C310.177,34.476,307.288,37.35,307.005,43.097z"/>
	</g>
	<g>
	</g>
	<g>
		<path class="st2" d="M222.875,84.772c-0.078,0.22-0.233,0.398-0.464,0.538c-0.089,0.055-0.198,0.098-0.329,0.131
			c-0.132,0.033-0.271,0.072-0.42,0.117c0.257,0.348,0.429,0.768,0.516,1.262c0.058,0.323,0.059,0.695,0.006,1.115
			c-0.054,0.422-0.217,0.853-0.492,1.293c-0.409,0.68-0.855,1.291-1.337,1.836s-1.013,1.008-1.593,1.384
			c-0.511,0.325-1.043,0.585-1.596,0.781c-0.554,0.194-1.162,0.36-1.823,0.497l-0.143,0.025c-1.71,0.301-2.977-0.044-3.798-1.036
			c-0.413-0.455-0.693-1.101-0.841-1.938c-0.09-0.513-0.127-1.054-0.11-1.627c0.046-1.183,0.339-2.272,0.879-3.27
			c0.539-0.996,1.234-1.806,2.085-2.425l-0.028,0.006c0.358-0.299,0.766-0.489,1.222-0.569c0.457-0.08,0.942,0.01,1.459,0.272
			c0.161-0.087,0.355-0.151,0.583-0.191c0.172-0.03,0.336-0.039,0.495-0.029c0.329-0.018,0.675,0.024,1.036,0.128
			c0.36,0.103,0.682,0.228,0.962,0.373l2.195-0.387c0.38-0.067,0.726,0.004,1.037,0.214c0.311,0.21,0.495,0.477,0.552,0.799
			l0.01,0.058C222.975,84.339,222.955,84.553,222.875,84.772z M219.507,87.174c-0.084-0.475-0.372-0.835-0.866-1.082l-1.967,0.347
			c-0.494,0.087-0.927,0.079-1.297-0.021c-0.371-0.101-0.601-0.291-0.688-0.569c-0.016,0.023-0.042,0.038-0.08,0.045
			c-0.035,0.025-0.063,0.04-0.08,0.043l-0.053,0.038c-0.298,0.308-0.597,0.757-0.894,1.348c-0.298,0.593-0.446,1.22-0.446,1.887
			c0.003,0.353,0.023,0.632,0.06,0.841c0.067,0.381,0.184,0.654,0.351,0.82c0.329,0.314,0.77,0.424,1.321,0.326l0.229-0.04
			c0.475-0.084,0.886-0.195,1.233-0.336c0.348-0.14,0.663-0.293,0.948-0.461c0.422-0.271,0.812-0.613,1.17-1.028
			c0.357-0.417,0.66-0.862,0.91-1.337C219.511,87.751,219.561,87.477,219.507,87.174z"/>
		<path class="st2" d="M236.278,85.774c0.047,0.267,0.009,0.523-0.114,0.771c-0.123,0.246-0.333,0.475-0.629,0.684
			c-0.088,0.055-0.172,0.109-0.251,0.161c-0.078,0.055-0.162,0.107-0.25,0.162l-0.005-0.028c-0.376,0.204-0.796,0.434-1.26,0.692
			c-0.464,0.258-0.964,0.508-1.499,0.749s-1.084,0.466-1.645,0.672c-0.563,0.207-1.118,0.359-1.669,0.456
			c-0.836,0.147-1.608,0.156-2.316,0.026c-0.634-0.144-1.188-0.398-1.664-0.766c-0.476-0.365-0.886-0.828-1.228-1.384
			c-0.344-0.557-0.634-1.2-0.87-1.934c-0.237-0.733-0.434-1.545-0.592-2.438l-0.035-0.198c-0.141-0.799-0.209-1.63-0.204-2.493
			s0.062-1.706,0.172-2.527c0.109-0.823,0.265-1.605,0.468-2.347c0.202-0.74,0.431-1.388,0.687-1.942
			c0.41-0.895,0.862-1.607,1.357-2.135c0.494-0.527,0.999-0.837,1.512-0.928c0.133-0.023,0.25-0.024,0.352-0.002l-0.062-0.018
			c0.64-0.035,1.221,0.255,1.74,0.869c0.52,0.613,0.935,1.578,1.245,2.895c0.039,0.111,0.07,0.232,0.094,0.365
			c0.02,0.114,0.042,0.238,0.065,0.371c0.171,0.969,0.254,2.023,0.248,3.159c-0.005,1.138-0.122,2.167-0.352,3.09
			c-0.263,1.065-0.627,2.06-1.091,2.984c-0.464,0.924-0.926,1.75-1.385,2.478c0.104,0.04,0.234,0.082,0.389,0.123
			s0.301,0.068,0.441,0.084c0.098,0.002,0.215-0.005,0.35-0.019s0.259-0.03,0.373-0.05c0.418-0.074,0.866-0.197,1.345-0.369
			c0.479-0.174,0.964-0.372,1.453-0.595c0.49-0.224,0.972-0.467,1.444-0.726c0.474-0.259,0.934-0.517,1.378-0.771l-0.028,0.005
			c0.139-0.104,0.303-0.171,0.493-0.204c0.589-0.104,1.039,0.12,1.353,0.672l-0.005-0.027
			C236.182,85.458,236.248,85.604,236.278,85.774z M226.392,74.38c-0.095,0.017-0.205,0.11-0.332,0.279
			c-0.127,0.17-0.267,0.434-0.419,0.794c-0.168,0.383-0.322,0.865-0.465,1.448c-0.142,0.584-0.252,1.21-0.329,1.881
			c-0.078,0.67-0.123,1.364-0.133,2.081c-0.011,0.717,0.032,1.409,0.131,2.078l0.051,0.284c0.117,0.666,0.287,1.242,0.511,1.732
			c0.343-0.607,0.664-1.238,0.96-1.888c0.297-0.65,0.521-1.322,0.673-2.015c0.072-0.267,0.119-0.605,0.146-1.01
			c0.026-0.406,0.043-0.84,0.05-1.303c0.006-0.461-0.008-0.928-0.042-1.402c-0.035-0.474-0.087-0.911-0.157-1.311l-0.065-0.37
			C226.773,74.872,226.581,74.446,226.392,74.38z"/>
		<path class="st2" d="M243.146,77.393c0.155,0.208,0.25,0.417,0.287,0.626c0.066,0.38-0.003,0.73-0.212,1.05
			c-0.207,0.321-0.474,0.51-0.796,0.567c-0.21,0.037-0.43,0.007-0.663-0.089l0.029-0.005c-0.146-0.053-0.353-0.056-0.619-0.009
			c-0.323,0.057-0.676,0.192-1.06,0.406c-0.384,0.216-0.769,0.474-1.156,0.778c-0.388,0.303-0.763,0.649-1.125,1.036
			c-0.363,0.388-0.685,0.782-0.967,1.185l0.028-0.005c-0.209,0.37-0.395,0.766-0.555,1.186c-0.161,0.421-0.235,0.775-0.224,1.067
			l0.025,0.144c0.017,0.095,0.054,0.137,0.11,0.126c0.114-0.02,0.275-0.106,0.483-0.261c0.239-0.199,0.499-0.422,0.778-0.666
			c0.28-0.246,0.566-0.482,0.859-0.711c0.293-0.228,0.588-0.44,0.887-0.641c0.298-0.2,0.581-0.372,0.849-0.517
			c0.089-0.055,0.19-0.092,0.304-0.112c0.114-0.02,0.238-0.042,0.371-0.065c0.322-0.057,0.629-0.042,0.918,0.043
			c0.29,0.087,0.539,0.278,0.748,0.574c0.103,0.139,0.226,0.361,0.368,0.669c0.142,0.309,0.284,0.671,0.427,1.087
			c0.142,0.416,0.281,0.876,0.419,1.38c0.139,0.505,0.255,1.023,0.349,1.556c0.094,0.531,0.162,1.063,0.207,1.595
			c0.044,0.529,0.05,1.034,0.017,1.51c-0.056,1.245-0.326,2.459-0.813,3.641c-0.487,1.184-1.262,2.261-2.325,3.232l0.023-0.034
			c-0.22,0.196-0.444,0.313-0.672,0.354c-0.247,0.043-0.486,0.021-0.717-0.066c-0.231-0.086-0.419-0.204-0.563-0.355
			c-0.094-0.082-0.175-0.186-0.245-0.31c-0.072-0.124-0.117-0.243-0.138-0.357c-0.073-0.419,0.08-0.827,0.46-1.228
			c0.846-0.756,1.432-1.551,1.756-2.381c0.323-0.832,0.503-1.701,0.539-2.608c0.018-0.454,0.01-0.858-0.023-1.216
			c-0.033-0.356-0.078-0.696-0.135-1.019c-0.078-0.438-0.173-0.862-0.284-1.273c-0.111-0.41-0.24-0.811-0.387-1.195
			c-0.007-0.038-0.019-0.074-0.034-0.112c-0.017-0.035-0.028-0.072-0.035-0.111c-0.046-0.148-0.116-0.214-0.211-0.197
			c-0.057,0.01-0.12,0.041-0.188,0.093c-0.247,0.16-0.55,0.386-0.91,0.674c-0.36,0.29-0.731,0.575-1.113,0.857
			c-0.15,0.145-0.313,0.281-0.485,0.409l0.027-0.005c-0.301,0.288-0.615,0.505-0.943,0.651c-0.326,0.146-0.643,0.245-0.945,0.299
			c-0.666,0.117-1.226,0-1.679-0.352c-0.454-0.35-0.748-0.906-0.882-1.666c-0.157-0.894-0.08-1.788,0.232-2.686
			c0.312-0.897,0.713-1.732,1.203-2.505c0.326-0.488,0.705-0.98,1.137-1.478c0.431-0.498,0.909-0.955,1.434-1.371
			c0.523-0.416,1.073-0.771,1.647-1.069c0.575-0.297,1.156-0.499,1.746-0.603c0.304-0.054,0.605-0.092,0.905-0.115
			c0.3-0.023,0.598,0.026,0.894,0.151l-0.005-0.028C242.778,77.028,242.993,77.186,243.146,77.393z"/>
		<path class="st2" d="M260.893,81.7c0.04,0.229,0.021,0.456-0.056,0.686c-0.077,0.23-0.208,0.43-0.394,0.6
			c-0.587,0.454-1.262,0.902-2.027,1.342c-0.765,0.438-1.493,0.757-2.182,0.957c-0.13,0.042-0.262,0.075-0.395,0.099
			s-0.247,0.044-0.342,0.061c-0.627,0.11-1.144,0.098-1.549-0.036c-0.406-0.134-0.8-0.393-1.181-0.776l0.005,0.029
			c-0.166-0.166-0.338-0.416-0.514-0.747c-0.176-0.332-0.289-0.64-0.339-0.925c-0.057,0.01-0.109,0.048-0.156,0.115
			c-0.22,0.196-0.487,0.482-0.803,0.861s-0.65,0.786-1.005,1.22c-0.23,0.257-0.445,0.506-0.647,0.748
			c-0.203,0.241-0.401,0.477-0.596,0.707c-0.713,0.731-1.421,1.161-2.124,1.285c-0.59,0.104-1.125,0.012-1.606-0.275
			c-0.612-0.362-1-1.009-1.165-1.94c-0.112-0.862-0.036-1.707,0.229-2.538c0.185-0.621,0.434-1.231,0.749-1.837
			c0.314-0.604,0.659-1.178,1.033-1.725c0.374-0.546,0.76-1.049,1.159-1.513c0.398-0.461,0.773-0.861,1.126-1.197
			c0.405-0.365,0.893-0.77,1.461-1.213c0.568-0.442,1.204-0.726,1.907-0.85c0.381-0.067,0.777-0.063,1.192,0.009
			c0.415,0.074,0.85,0.237,1.306,0.49c0.217,0.119,0.379,0.256,0.485,0.415c0.105,0.157,0.172,0.312,0.199,0.464
			c0.043,0.247,0.025,0.476-0.056,0.686c-0.096,0.232-0.243,0.431-0.439,0.592c-0.197,0.163-0.428,0.267-0.694,0.313
			c-0.284,0.05-0.565,0.011-0.843-0.116c-0.153-0.091-0.315-0.145-0.485-0.164c-0.169-0.019-0.34-0.014-0.511,0.017
			c-0.532,0.094-1.115,0.451-1.751,1.073c-0.302,0.289-0.622,0.638-0.96,1.051c-0.34,0.411-0.668,0.857-0.985,1.333
			c-0.317,0.479-0.604,0.97-0.857,1.475c-0.253,0.506-0.44,0.974-0.56,1.406c-0.04,0.104-0.062,0.235-0.063,0.393
			c-0.001,0.158,0.009,0.303,0.032,0.436s0.047,0.207,0.069,0.223c0.007,0.039,0.029,0.055,0.067,0.048
			c0.113-0.021,0.26-0.135,0.439-0.343l0.297-0.316c0.26-0.301,0.556-0.651,0.887-1.053c0.33-0.401,0.672-0.8,1.023-1.195
			c0.353-0.394,0.696-0.772,1.034-1.136c0.337-0.364,0.642-0.667,0.912-0.911l0.005,0.029c0.441-0.392,0.89-0.627,1.345-0.707
			c0.38-0.067,0.714-0.009,1.001,0.175c0.287,0.185,0.474,0.515,0.557,0.99l0.076,0.428c0.047,0.266,0.098,0.501,0.153,0.707
			c0.056,0.206,0.124,0.371,0.204,0.494c0.143,0.249,0.288,0.409,0.438,0.48c0.149,0.072,0.328,0.089,0.538,0.053l0.114-0.021
			c0.221-0.078,0.477-0.182,0.768-0.312c0.29-0.129,0.583-0.274,0.878-0.434c0.296-0.16,0.58-0.323,0.855-0.489
			c0.273-0.166,0.505-0.323,0.695-0.476c0.207-0.153,0.406-0.247,0.597-0.28c0.36-0.063,0.701,0.034,1.021,0.291l0.005,0.027
			C260.706,81.195,260.846,81.434,260.893,81.7z"/>
		<path class="st2" d="M283.385,77.089c0.084,0.476-0.087,0.897-0.512,1.266c-0.312,0.231-0.753,0.534-1.323,0.91
			c-0.571,0.375-1.243,0.758-2.017,1.149c-0.773,0.391-1.638,0.769-2.592,1.133c-0.955,0.363-1.973,0.651-3.052,0.861l-0.229,0.04
			c-1.481,0.262-2.687,0.185-3.611-0.23s-1.472-1.098-1.64-2.048c-0.057-0.322-0.067-0.688-0.031-1.096
			c0.035-0.408,0.142-0.833,0.318-1.275c0.381-1.067,1.029-2.107,1.948-3.121s2.009-1.888,3.271-2.62
			c0.146-0.065,0.437-0.135,0.873-0.212c0.115-0.02,0.219-0.038,0.314-0.055c0.095-0.017,0.173-0.021,0.233-0.012
			c0.507-0.011,0.901,0.086,1.183,0.291c0.28,0.206,0.459,0.468,0.535,0.788c0.057,0.323,0,0.641-0.17,0.955
			c-0.169,0.315-0.438,0.543-0.805,0.686c-0.075,0.014-0.151,0.033-0.226,0.054c-0.073,0.023-0.168,0.045-0.282,0.065
			c-0.171,0.03-0.344,0.051-0.518,0.062c-0.175,0.012-0.353,0.003-0.533-0.023c-0.307,0.152-0.622,0.364-0.946,0.637
			c-0.324,0.273-0.637,0.583-0.938,0.93c-0.302,0.347-0.57,0.718-0.804,1.112c-0.234,0.393-0.406,0.776-0.518,1.148
			c-0.09,0.271-0.115,0.511-0.079,0.72c0.054,0.304,0.255,0.528,0.604,0.672c0.349,0.145,0.855,0.158,1.521,0.041
			c0.912-0.161,1.784-0.403,2.619-0.727s1.603-0.664,2.303-1.024c0.701-0.358,1.307-0.703,1.815-1.039s0.884-0.602,1.123-0.8
			c0.208-0.154,0.426-0.252,0.653-0.292c0.456-0.081,0.839,0.039,1.15,0.356l0.028-0.005
			C283.235,76.626,283.345,76.86,283.385,77.089z"/>
		<path class="st2" d="M297.092,75.319c0.04,0.229,0.021,0.456-0.056,0.686c-0.077,0.23-0.208,0.429-0.394,0.599
			c-0.587,0.455-1.262,0.903-2.027,1.342c-0.765,0.438-1.493,0.756-2.182,0.958c-0.13,0.042-0.262,0.075-0.395,0.099
			s-0.247,0.044-0.342,0.061c-0.627,0.11-1.144,0.098-1.549-0.036c-0.406-0.134-0.8-0.393-1.181-0.777l0.005,0.029
			c-0.166-0.166-0.338-0.416-0.514-0.747s-0.289-0.64-0.339-0.925c-0.057,0.01-0.109,0.048-0.156,0.115
			c-0.22,0.197-0.487,0.483-0.804,0.862c-0.314,0.379-0.649,0.786-1.004,1.22c-0.23,0.257-0.445,0.505-0.647,0.748
			c-0.203,0.241-0.401,0.476-0.596,0.707c-0.713,0.732-1.421,1.162-2.124,1.286c-0.59,0.104-1.125,0.011-1.606-0.275
			c-0.612-0.362-1-1.009-1.165-1.94c-0.113-0.862-0.036-1.708,0.229-2.539c0.185-0.621,0.434-1.231,0.749-1.837
			c0.314-0.603,0.659-1.177,1.033-1.725c0.374-0.546,0.76-1.049,1.159-1.512c0.398-0.462,0.773-0.861,1.126-1.197
			c0.405-0.366,0.893-0.77,1.461-1.213c0.568-0.442,1.204-0.726,1.907-0.85c0.381-0.067,0.777-0.063,1.192,0.009
			c0.414,0.074,0.85,0.237,1.306,0.49c0.217,0.119,0.379,0.256,0.485,0.415c0.105,0.158,0.172,0.312,0.199,0.464
			c0.043,0.247,0.025,0.476-0.056,0.686c-0.096,0.232-0.243,0.43-0.439,0.592c-0.197,0.163-0.428,0.267-0.694,0.313
			c-0.284,0.05-0.565,0.012-0.843-0.116c-0.153-0.091-0.315-0.145-0.485-0.164c-0.17-0.019-0.34-0.014-0.511,0.017
			c-0.532,0.094-1.115,0.451-1.751,1.073c-0.302,0.289-0.622,0.639-0.96,1.051c-0.34,0.412-0.668,0.857-0.985,1.334
			c-0.317,0.478-0.604,0.969-0.857,1.474c-0.253,0.506-0.44,0.974-0.56,1.407c-0.04,0.104-0.062,0.235-0.063,0.393
			c-0.001,0.157,0.009,0.303,0.032,0.436s0.047,0.207,0.069,0.222c0.007,0.039,0.029,0.054,0.067,0.047
			c0.113-0.02,0.26-0.134,0.439-0.342l0.297-0.316c0.26-0.301,0.556-0.652,0.887-1.054c0.33-0.4,0.672-0.799,1.023-1.194
			c0.353-0.394,0.696-0.773,1.034-1.137c0.337-0.363,0.642-0.667,0.912-0.911l0.005,0.029c0.441-0.392,0.89-0.626,1.345-0.707
			c0.38-0.067,0.714-0.009,1.001,0.175c0.287,0.185,0.474,0.515,0.557,0.991l0.076,0.428c0.047,0.266,0.098,0.501,0.153,0.707
			c0.056,0.206,0.124,0.371,0.204,0.494c0.143,0.249,0.288,0.41,0.438,0.481c0.149,0.072,0.328,0.089,0.538,0.052l0.114-0.02
			c0.221-0.078,0.477-0.182,0.768-0.312c0.29-0.128,0.583-0.274,0.878-0.434c0.296-0.16,0.58-0.323,0.854-0.489
			c0.274-0.167,0.506-0.324,0.696-0.476c0.207-0.154,0.406-0.247,0.597-0.281c0.36-0.063,0.701,0.034,1.021,0.291l0.005,0.027
			C296.905,74.813,297.045,75.053,297.092,75.319z"/>
		<path class="st2" d="M303.244,71.031c-0.096,0.017-0.202,0.025-0.319,0.027s-0.23-0.028-0.339-0.087l0.028-0.005
			c-0.286-0.066-0.496-0.089-0.629-0.065c-0.037,0.007-0.095,0.017-0.17,0.03c-0.057,0.01-0.104,0.029-0.138,0.053
			c-0.26,0.086-0.569,0.218-0.929,0.399c-0.36,0.181-0.729,0.398-1.105,0.651s-0.759,0.53-1.146,0.833
			c-0.388,0.303-0.742,0.602-1.063,0.893c-0.491,0.44-0.811,0.848-0.96,1.227c-0.108,0.274-0.164,0.514-0.167,0.72
			s-0.001,0.437,0.005,0.69l-0.006-0.029c0.035,0.425-0.052,0.759-0.264,1.003c-0.212,0.243-0.479,0.393-0.803,0.449
			c-0.323,0.057-0.632-0.001-0.927-0.175c-0.295-0.172-0.491-0.476-0.587-0.91c-0.053-0.187-0.096-0.375-0.129-0.564
			c-0.036-0.209-0.075-0.429-0.115-0.656l-0.231-1.311c-0.077-0.438-0.141-0.853-0.19-1.246c-0.05-0.392-0.082-0.744-0.098-1.054
			c-0.169-0.069-0.271-0.207-0.309-0.417c-0.023-0.133,0.001-0.274,0.072-0.423c0.121-0.315,0.218-0.656,0.29-1.021l0.005,0.028
			c0.049-0.283,0.163-0.494,0.344-0.634c0.182-0.139,0.387-0.229,0.614-0.27c0.038-0.007,0.106-0.009,0.205-0.007
			c0.098,0.003,0.204-0.007,0.318-0.027c0.222,0.041,0.435,0.135,0.638,0.286c0.203,0.15,0.328,0.359,0.375,0.624
			c0.007,0.039,0.008,0.077,0.005,0.118c-0.002,0.039,0,0.077,0.007,0.115c-0.021,0.219-0.02,0.503,0.003,0.853
			c0.022,0.348,0.048,0.666,0.08,0.956c0.034-0.026,0.061-0.046,0.077-0.058c0.018-0.012,0.042-0.042,0.074-0.086
			c0.03-0.044,0.073-0.082,0.127-0.111c0.349-0.355,0.765-0.717,1.248-1.087c0.483-0.368,0.986-0.712,1.509-1.03
			c0.521-0.317,1.04-0.6,1.555-0.847c0.516-0.247,0.989-0.419,1.424-0.515l0.113-0.02c0.38-0.067,0.731-0.071,1.057-0.01
			c0.323,0.06,0.572,0.134,0.744,0.221c0.366,0.19,0.583,0.476,0.65,0.855c0.057,0.323,0.021,0.623-0.105,0.899l0.028-0.005
			C303.932,70.714,303.642,70.961,303.244,71.031z"/>
		<path class="st2" d="M314.331,69.076c-0.096,0.017-0.201,0.026-0.318,0.027s-0.23-0.028-0.339-0.087l0.028-0.005
			c-0.286-0.066-0.496-0.089-0.629-0.065c-0.038,0.007-0.095,0.017-0.17,0.03c-0.058,0.01-0.104,0.029-0.138,0.053
			c-0.26,0.086-0.569,0.218-0.929,0.399c-0.36,0.181-0.729,0.398-1.105,0.651s-0.759,0.53-1.146,0.833
			c-0.388,0.303-0.742,0.601-1.063,0.892c-0.491,0.44-0.812,0.848-0.96,1.227c-0.108,0.274-0.164,0.515-0.167,0.72
			c-0.003,0.206-0.001,0.437,0.005,0.69l-0.006-0.029c0.035,0.426-0.053,0.76-0.264,1.003c-0.212,0.243-0.479,0.393-0.803,0.45
			c-0.323,0.057-0.632-0.001-0.927-0.175c-0.295-0.172-0.491-0.476-0.587-0.91c-0.053-0.186-0.096-0.375-0.129-0.564
			c-0.036-0.209-0.075-0.429-0.115-0.656l-0.231-1.311c-0.077-0.438-0.141-0.852-0.19-1.246c-0.05-0.392-0.082-0.744-0.098-1.054
			c-0.169-0.069-0.271-0.207-0.309-0.417c-0.023-0.133,0.001-0.274,0.072-0.423c0.121-0.315,0.218-0.656,0.29-1.021l0.005,0.028
			c0.049-0.282,0.163-0.494,0.344-0.635c0.182-0.139,0.387-0.229,0.614-0.269c0.038-0.007,0.106-0.009,0.205-0.007
			c0.098,0.003,0.204-0.007,0.318-0.027c0.222,0.04,0.435,0.135,0.638,0.285s0.328,0.359,0.375,0.624
			c0.007,0.039,0.008,0.077,0.005,0.118c-0.002,0.039,0,0.078,0.007,0.116c-0.021,0.219-0.02,0.502,0.003,0.852
			c0.021,0.348,0.048,0.666,0.08,0.956c0.034-0.026,0.061-0.046,0.077-0.058c0.018-0.012,0.042-0.042,0.073-0.086
			s0.074-0.082,0.128-0.111c0.349-0.355,0.765-0.717,1.248-1.087c0.483-0.368,0.986-0.711,1.509-1.03
			c0.521-0.318,1.04-0.599,1.555-0.847c0.516-0.247,0.989-0.419,1.424-0.515l0.113-0.02c0.38-0.067,0.731-0.071,1.057-0.01
			c0.323,0.06,0.572,0.134,0.744,0.221c0.366,0.19,0.583,0.475,0.65,0.855c0.057,0.323,0.021,0.624-0.105,0.9l0.028-0.005
			C315.02,68.76,314.73,69.006,314.331,69.076z"/>
		<path class="st2" d="M327.842,69.869c0.041,0.228,0.012,0.458-0.084,0.69c-0.096,0.233-0.287,0.424-0.574,0.572l0.028-0.005
			c-0.143,0.083-0.294,0.168-0.454,0.256c-0.161,0.088-0.338,0.196-0.53,0.329c-0.372,0.222-0.794,0.473-1.264,0.751
			c-0.47,0.279-0.972,0.548-1.503,0.809c-0.533,0.26-1.093,0.497-1.683,0.708c-0.591,0.211-1.189,0.372-1.797,0.479
			c-0.513,0.091-0.995,0.135-1.445,0.136c-0.876,0.037-1.616-0.167-2.224-0.607c-0.82-0.541-1.322-1.334-1.506-2.38
			c-0.033-0.189-0.057-0.376-0.07-0.561c-0.013-0.184-0.016-0.365-0.007-0.542c-0.001-1.117,0.147-2.131,0.447-3.047
			c0.299-0.915,0.617-1.695,0.953-2.343c0.715-1.282,1.384-2.154,2.008-2.616l-0.028,0.005c0.239-0.199,0.531-0.377,0.875-0.536
			c0.344-0.159,0.706-0.272,1.086-0.339c0.532-0.094,1.01-0.05,1.434,0.13c0.462,0.173,0.811,0.456,1.046,0.844
			c0.235,0.391,0.395,0.823,0.479,1.297c0.09,0.513,0.113,0.979,0.07,1.399c-0.067,0.618-0.277,1.233-0.63,1.844
			c-0.354,0.612-0.792,1.183-1.314,1.716c-0.523,0.534-1.107,0.999-1.752,1.397c-0.646,0.396-1.284,0.69-1.917,0.88
			c0.051,0.285,0.177,0.502,0.38,0.653c0.202,0.151,0.449,0.22,0.742,0.208c0.298,0.025,0.627,0.006,0.988-0.058
			c0.874-0.154,1.765-0.467,2.671-0.941c0.906-0.473,1.723-0.92,2.452-1.343c0.249-0.141,0.484-0.281,0.705-0.417
			c0.221-0.138,0.421-0.25,0.602-0.34c0.054-0.03,0.108-0.053,0.163-0.074c0.056-0.019,0.13-0.037,0.226-0.054
			c0.247-0.043,0.473-0.01,0.679,0.101s0.384,0.261,0.535,0.45l-0.005-0.028C327.726,69.43,327.799,69.622,327.842,69.869z
			 M320.508,64.608c-0.01-0.058-0.03-0.117-0.061-0.181c-0.031-0.063-0.06-0.111-0.085-0.147c-0.045-0.031-0.124-0.037-0.238-0.017
			c-0.095,0.017-0.195,0.06-0.301,0.126c-0.105,0.068-0.203,0.129-0.291,0.184l0.028-0.005c-0.188,0.151-0.406,0.415-0.654,0.792
			c-0.267,0.38-0.513,0.815-0.739,1.305c-0.227,0.491-0.393,1.001-0.495,1.528c0.341-0.178,0.672-0.383,0.994-0.616
			c0.321-0.234,0.614-0.486,0.88-0.757c0.266-0.272,0.485-0.557,0.659-0.851c0.172-0.295,0.273-0.582,0.303-0.862l0.005,0.028
			C320.53,64.898,320.529,64.722,320.508,64.608z"/>
		<path class="st2" d="M334.312,65.554c-0.096,0.017-0.201,0.025-0.319,0.027c-0.116,0.002-0.23-0.028-0.338-0.087l0.028-0.005
			c-0.286-0.066-0.496-0.088-0.629-0.065c-0.038,0.007-0.095,0.017-0.171,0.03c-0.057,0.01-0.103,0.029-0.138,0.053
			c-0.259,0.086-0.568,0.218-0.929,0.399c-0.359,0.182-0.729,0.398-1.104,0.651c-0.377,0.252-0.759,0.53-1.146,0.833
			s-0.741,0.601-1.063,0.892c-0.491,0.44-0.811,0.848-0.959,1.228c-0.108,0.274-0.164,0.514-0.167,0.72
			c-0.004,0.206-0.001,0.436,0.004,0.69l-0.005-0.029c0.035,0.426-0.053,0.759-0.265,1.003c-0.212,0.243-0.479,0.393-0.803,0.45
			c-0.323,0.057-0.631-0.001-0.926-0.175c-0.296-0.173-0.491-0.477-0.587-0.911c-0.054-0.186-0.096-0.375-0.129-0.564
			c-0.037-0.209-0.075-0.429-0.116-0.656l-0.23-1.311c-0.077-0.438-0.142-0.852-0.19-1.246c-0.05-0.392-0.083-0.744-0.098-1.054
			c-0.169-0.069-0.272-0.207-0.309-0.417c-0.023-0.133,0-0.273,0.072-0.423c0.12-0.315,0.217-0.656,0.29-1.021l0.005,0.028
			c0.048-0.282,0.163-0.494,0.344-0.634c0.181-0.139,0.386-0.229,0.614-0.269c0.037-0.007,0.105-0.009,0.204-0.007
			c0.099,0.003,0.205-0.007,0.318-0.027c0.223,0.041,0.436,0.135,0.638,0.285c0.203,0.15,0.328,0.359,0.375,0.624
			c0.007,0.039,0.009,0.077,0.006,0.118c-0.003,0.039,0,0.078,0.006,0.116c-0.02,0.219-0.02,0.503,0.003,0.853
			c0.022,0.347,0.049,0.666,0.08,0.955c0.035-0.026,0.061-0.046,0.078-0.058c0.018-0.012,0.042-0.042,0.073-0.087
			c0.031-0.044,0.074-0.081,0.127-0.111c0.349-0.355,0.766-0.717,1.249-1.087c0.483-0.368,0.986-0.711,1.508-1.03
			c0.522-0.317,1.041-0.599,1.556-0.847c0.515-0.247,0.988-0.419,1.423-0.515l0.114-0.02c0.38-0.067,0.731-0.07,1.057-0.01
			c0.323,0.06,0.571,0.134,0.744,0.221c0.366,0.19,0.583,0.475,0.65,0.855c0.057,0.323,0.021,0.624-0.106,0.9l0.028-0.005
			C335,65.237,334.711,65.484,334.312,65.554z"/>
		<path class="st2" d="M350.993,65.818c0.04,0.229,0.022,0.456-0.056,0.685c-0.076,0.23-0.208,0.43-0.394,0.599
			c-0.586,0.455-1.262,0.903-2.026,1.342c-0.766,0.438-1.493,0.756-2.183,0.958c-0.13,0.042-0.261,0.075-0.394,0.099
			c-0.134,0.023-0.247,0.043-0.343,0.06c-0.627,0.111-1.144,0.098-1.549-0.036c-0.406-0.134-0.799-0.393-1.18-0.777l0.005,0.029
			c-0.167-0.166-0.338-0.416-0.515-0.747c-0.175-0.332-0.288-0.64-0.339-0.925c-0.057,0.01-0.109,0.048-0.155,0.115
			c-0.221,0.197-0.488,0.483-0.804,0.862c-0.315,0.378-0.65,0.786-1.005,1.22c-0.229,0.257-0.445,0.505-0.646,0.748
			c-0.203,0.241-0.401,0.476-0.596,0.707c-0.713,0.731-1.422,1.162-2.125,1.286c-0.589,0.104-1.125,0.011-1.606-0.276
			c-0.612-0.362-1-1.009-1.164-1.94c-0.113-0.862-0.036-1.707,0.229-2.538c0.185-0.621,0.434-1.231,0.749-1.837
			c0.314-0.604,0.659-1.178,1.033-1.725c0.374-0.546,0.76-1.049,1.158-1.512c0.398-0.462,0.774-0.862,1.127-1.198
			c0.405-0.365,0.893-0.77,1.461-1.213c0.568-0.442,1.203-0.726,1.907-0.85c0.38-0.067,0.777-0.063,1.192,0.009
			c0.414,0.074,0.85,0.237,1.306,0.49c0.216,0.119,0.378,0.256,0.484,0.415c0.106,0.157,0.173,0.312,0.199,0.464
			c0.044,0.247,0.025,0.476-0.055,0.686c-0.097,0.232-0.243,0.431-0.44,0.592c-0.196,0.163-0.428,0.267-0.693,0.313
			c-0.285,0.05-0.566,0.011-0.844-0.116c-0.153-0.091-0.314-0.145-0.484-0.164c-0.17-0.019-0.34-0.014-0.512,0.017
			c-0.531,0.094-1.115,0.451-1.75,1.073c-0.303,0.289-0.623,0.638-0.961,1.051c-0.339,0.411-0.667,0.857-0.984,1.333
			c-0.318,0.478-0.604,0.97-0.857,1.475c-0.254,0.506-0.44,0.974-0.561,1.406c-0.039,0.105-0.061,0.235-0.063,0.393
			c-0.002,0.157,0.009,0.302,0.032,0.435s0.047,0.208,0.069,0.223c0.006,0.039,0.028,0.054,0.066,0.047
			c0.114-0.02,0.261-0.134,0.439-0.342l0.297-0.316c0.261-0.301,0.556-0.652,0.888-1.054c0.33-0.4,0.672-0.799,1.023-1.194
			c0.352-0.394,0.696-0.773,1.034-1.137c0.337-0.364,0.642-0.667,0.912-0.911l0.005,0.029c0.44-0.392,0.889-0.627,1.345-0.707
			c0.38-0.067,0.713-0.009,1.001,0.175c0.287,0.185,0.473,0.515,0.557,0.99l0.075,0.428c0.047,0.266,0.098,0.501,0.154,0.707
			c0.055,0.206,0.124,0.371,0.204,0.494c0.142,0.249,0.288,0.409,0.438,0.48c0.149,0.072,0.329,0.089,0.538,0.052l0.114-0.02
			c0.221-0.078,0.478-0.182,0.768-0.312c0.291-0.129,0.584-0.274,0.879-0.434c0.295-0.16,0.58-0.323,0.854-0.489
			s0.506-0.324,0.695-0.476c0.207-0.154,0.406-0.247,0.597-0.281c0.36-0.063,0.701,0.034,1.021,0.291l0.005,0.027
			C350.805,65.312,350.946,65.551,350.993,65.818z"/>
		<path class="st2" d="M354.904,57.664c-0.38,0.067-0.792,0.003-1.238-0.193c-0.247,0.043-0.557,0.151-0.928,0.324
			c-0.37,0.174-0.752,0.378-1.141,0.613c-0.39,0.236-0.767,0.487-1.131,0.758c-0.363,0.269-0.669,0.534-0.918,0.793
			c-0.333,0.333-0.492,0.596-0.478,0.789c0.061,0.127,0.259,0.25,0.593,0.366c0.166,0.05,0.326,0.096,0.479,0.137
			c0.155,0.04,0.314,0.086,0.479,0.135c0.417,0.144,0.849,0.283,1.294,0.419c0.445,0.138,0.916,0.339,1.414,0.604
			c0.523,0.299,0.932,0.697,1.225,1.194c0.294,0.497,0.487,1.012,0.581,1.543c0.097,0.552,0.102,1.109,0.016,1.673
			c-0.087,0.563-0.225,1.088-0.414,1.572c-0.363,0.827-0.82,1.628-1.369,2.401c-0.55,0.772-1.253,1.509-2.108,2.209
			c-0.353,0.335-0.805,0.552-1.355,0.649c-0.532,0.094-1.027,0.064-1.485-0.089c-0.354-0.115-0.618-0.284-0.794-0.507
			c-0.177-0.225-0.287-0.46-0.33-0.707c-0.018-0.095-0.022-0.206-0.016-0.335c0.007-0.128,0.019-0.253,0.037-0.373
			c0.058-0.227,0.165-0.422,0.322-0.586s0.369-0.271,0.635-0.317c0.152-0.027,0.298-0.033,0.438-0.019
			c0.14,0.016,0.296,0.066,0.468,0.153c0.09,0.063,0.191,0.084,0.306,0.064c0.151-0.026,0.269-0.086,0.35-0.179
			c0.541-0.487,1.037-1.04,1.486-1.658c0.45-0.619,0.782-1.202,1-1.749c0.158-0.321,0.248-0.617,0.271-0.885
			c0.021-0.269,0.008-0.535-0.039-0.802l-0.021-0.113c-0.061-0.342-0.235-0.615-0.526-0.818c-0.351-0.213-0.791-0.403-1.32-0.575
			c-0.53-0.171-1.123-0.336-1.777-0.495c-0.083-0.025-0.149-0.042-0.2-0.054c-0.051-0.01-0.118-0.027-0.2-0.052
			c-0.713-0.149-1.278-0.412-1.697-0.789c-0.419-0.376-0.672-0.811-0.759-1.306c-0.084-0.475,0.006-0.989,0.271-1.546
			c0.265-0.556,0.708-1.124,1.331-1.704l-0.028,0.005c0.298-0.308,0.666-0.637,1.104-0.989c0.438-0.351,0.908-0.679,1.413-0.983
			c0.505-0.304,1.038-0.584,1.601-0.841c0.562-0.256,1.117-0.44,1.665-0.557l0.085-0.015c0.381-0.067,0.738-0.062,1.076,0.016
			c0.337,0.079,0.611,0.215,0.822,0.413l-0.005-0.027c0.297,0.241,0.474,0.522,0.531,0.846c0.05,0.285,0.005,0.587-0.134,0.906
			C355.615,57.361,355.322,57.59,354.904,57.664z"/>
	</g>
</g>
<g>
</g>
<g>
</g>
<g>
</g>
<g>
</g>
<g>
</g>
<g>
</g>
</svg>
